<?xml version="1.0" encoding="UTF-8"?>
<svg width="162px" height="60px" viewBox="0 0 162 60" version="1.1" xmlns="http://www.w3.org/2000/svg" xmlns:xlink="http://www.w3.org/1999/xlink">
    <!-- Generator: Sketch 53.2 (72643) - https://sketchapp.com -->
    <title>Group 2</title>
    <desc>Created with Sketch.</desc>
    <defs>
        <path d="M6.250125,19.999875 C6.250125,17.932125 7.932,16.251375 10.000125,16.251375 L13.750125,16.249875 L13.750125,19.999875 C13.750125,22.068 12.067875,23.749875 10.000125,23.749875 C7.932,23.749875 6.250125,22.068 6.250125,19.999875 Z M19.999875,6.250125 C22.068,6.250125 23.749875,7.932 23.749875,10.000125 C23.749875,12.067875 22.068,13.750125 19.999875,13.750125 L16.249875,13.750125 L16.249875,10.000125 C16.249875,7.932375 17.932125,6.250125 19.999875,6.250125 Z M27.499875,0 C28.874625,0 30,1.125375 30,2.500125 L30,27.499875 C30,28.874625 28.874625,30 27.499875,30 L2.500125,30 C1.125375,30 0,28.874625 0,27.50025 L0,2.500125 C0,1.125375 1.125375,0 2.500125,0 L27.499875,0 Z M19.999875,16.249875 C23.44575,16.249875 26.25,13.446 26.25,10.000125 C26.25,6.553875 23.44575,3.75 19.999875,3.75 C16.554,3.75 13.750125,6.553875 13.750125,10.000125 L13.750125,13.750125 L10.000125,13.750125 C6.55425,13.750125 3.75,16.554 3.75,19.999875 C3.75,23.44575 6.55425,26.25 10.000125,26.25 C13.446,26.25 16.249875,23.44575 16.249875,19.999875 L16.249875,16.249875 L19.999875,16.249875 Z" id="path-1"></path>
        <filter x="-88.3%" y="-61.7%" width="276.7%" height="276.7%" filterUnits="objectBoundingBox" id="filter-2">
            <feOffset dx="0" dy="8" in="SourceAlpha" result="shadowOffsetOuter1"></feOffset>
            <feGaussianBlur stdDeviation="7.5" in="shadowOffsetOuter1" result="shadowBlurOuter1"></feGaussianBlur>
            <feColorMatrix values="0 0 0 0 0.137254902   0 0 0 0 0.105882353   0 0 0 0 0.458823529  0 0 0 0.1 0" type="matrix" in="shadowBlurOuter1"></feColorMatrix>
        </filter>
    </defs>
    <g id="Fliply" stroke="none" stroke-width="1" fill="none" fill-rule="evenodd">
        <g id="Design" transform="translate(-165.000000, -26.000000)">
            <g id="menu" transform="translate(180.000000, 30.000000)">
                <g id="Group-2" transform="translate(0.000000, 3.000000)">
                    <g id="Group" transform="translate(40.000000, 1.000000)">
                        <path d="M9.282,3.108 C10.215338,3.108 10.9549973,3.37866396 11.501,3.92 C12.0470027,4.46133604 12.32,5.26399468 12.32,6.328 L12.32,10.598 L10.976,10.598 L10.976,6.482 C10.976,5.76332974 10.810335,5.22200182 10.479,4.858 C10.147665,4.49399818 9.67400308,4.312 9.058,4.312 C8.37666326,4.312 7.83533534,4.52433121 7.434,4.949 C7.03266466,5.37366879 6.832,5.9826627 6.832,6.776 L6.832,10.598 L5.488,10.598 L5.488,6.482 C5.488,5.76332974 5.32233499,5.22200182 4.991,4.858 C4.65966501,4.49399818 4.18600308,4.312 3.57,4.312 C2.88866326,4.312 2.34733534,4.52433121 1.946,4.949 C1.54466466,5.37366879 1.344,5.9826627 1.344,6.776 L1.344,10.598 L0,10.598 L0,3.178 L1.288,3.178 L1.288,4.284 C1.55866802,3.90133142 1.91333114,3.60966767 2.352,3.409 C2.79066886,3.20833233 3.2899972,3.108 3.85,3.108 C4.42866956,3.108 4.94199776,3.2246655 5.39,3.458 C5.83800224,3.6913345 6.18333212,4.03199776 6.426,4.48 C6.7060014,4.05066452 7.09566417,3.71466788 7.595,3.472 C8.09433583,3.22933212 8.65666354,3.108 9.282,3.108 Z M14.798,3.178 L16.142,3.178 L16.142,10.598 L14.798,10.598 L14.798,3.178 Z M15.47,1.75 C15.2086654,1.75 14.9916675,1.66600084 14.819,1.498 C14.6463325,1.32999916 14.56,1.12466788 14.56,0.882 C14.56,0.63933212 14.6463325,0.43166753 14.819,0.259 C14.9916675,0.08633247 15.2086654,0 15.47,0 C15.7313346,0 15.9483325,0.08166585 16.121,0.245 C16.2936675,0.40833415 16.38,0.61133212 16.38,0.854 C16.38,1.10600126 16.2936675,1.31833247 16.121,1.491 C15.9483325,1.66366753 15.7313346,1.75 15.47,1.75 Z M22.666,3.108 C23.6086714,3.108 24.3576639,3.38099727 24.913,3.927 C25.4683361,4.47300273 25.746,5.27332806 25.746,6.328 L25.746,10.598 L24.402,10.598 L24.402,6.482 C24.402,5.76332974 24.2293351,5.22200182 23.884,4.858 C23.5386649,4.49399818 23.0440032,4.312 22.4,4.312 C21.6719964,4.312 21.0980021,4.52433121 20.678,4.949 C20.2579979,5.37366879 20.048,5.9826627 20.048,6.776 L20.048,10.598 L18.704,10.598 L18.704,3.178 L19.992,3.178 L19.992,4.298 C20.262668,3.91533142 20.6289977,3.62133436 21.091,3.416 C21.5530023,3.21066564 22.0779971,3.108 22.666,3.108 Z M28.238,3.178 L29.582,3.178 L29.582,10.598 L28.238,10.598 L28.238,3.178 Z M28.91,1.75 C28.6486654,1.75 28.4316675,1.66600084 28.259,1.498 C28.0863325,1.32999916 28,1.12466788 28,0.882 C28,0.63933212 28.0863325,0.43166753 28.259,0.259 C28.4316675,0.08633247 28.6486654,0 28.91,0 C29.1713346,0 29.3883325,0.08166585 29.561,0.245 C29.7336675,0.40833415 29.82,0.61133212 29.82,0.854 C29.82,1.10600126 29.7336675,1.31833247 29.561,1.491 C29.3883325,1.66366753 29.1713346,1.75 28.91,1.75 Z M41.426,3.108 C42.359338,3.108 43.0989973,3.37866396 43.645,3.92 C44.1910027,4.46133604 44.464,5.26399468 44.464,6.328 L44.464,10.598 L43.12,10.598 L43.12,6.482 C43.12,5.76332974 42.954335,5.22200182 42.623,4.858 C42.291665,4.49399818 41.8180031,4.312 41.202,4.312 C40.5206633,4.312 39.9793353,4.52433121 39.578,4.949 C39.1766647,5.37366879 38.976,5.9826627 38.976,6.776 L38.976,10.598 L37.632,10.598 L37.632,6.482 C37.632,5.76332974 37.466335,5.22200182 37.135,4.858 C36.803665,4.49399818 36.3300031,4.312 35.714,4.312 C35.0326633,4.312 34.4913353,4.52433121 34.09,4.949 C33.6886647,5.37366879 33.488,5.9826627 33.488,6.776 L33.488,10.598 L32.144,10.598 L32.144,3.178 L33.432,3.178 L33.432,4.284 C33.702668,3.90133142 34.0573311,3.60966767 34.496,3.409 C34.9346689,3.20833233 35.4339972,3.108 35.994,3.108 C36.5726696,3.108 37.0859978,3.2246655 37.534,3.458 C37.9820022,3.6913345 38.3273321,4.03199776 38.57,4.48 C38.8500014,4.05066452 39.2396642,3.71466788 39.739,3.472 C40.2383358,3.22933212 40.8006635,3.108 41.426,3.108 Z M49.644,3.108 C50.6706718,3.108 51.4569973,3.35999748 52.003,3.864 C52.5490027,4.36800252 52.822,5.11932834 52.822,6.118 L52.822,10.598 L51.548,10.598 L51.548,9.618 C51.3239989,9.96333506 51.0043354,10.2269991 50.589,10.409 C50.1736646,10.5910009 49.6813362,10.682 49.112,10.682 C48.2813292,10.682 47.6163358,10.4813353 47.117,10.08 C46.6176642,9.67866466 46.368,9.1513366 46.368,8.498 C46.368,7.8446634 46.6059976,7.31966865 47.082,6.923 C47.5580024,6.52633135 48.3139948,6.328 49.35,6.328 L51.478,6.328 L51.478,6.062 C51.478,5.48333044 51.3100017,5.04000154 50.974,4.732 C50.6379983,4.42399846 50.1433366,4.27 49.49,4.27 C49.0513311,4.27 48.6220021,4.34233261 48.202,4.487 C47.7819979,4.63166739 47.4273348,4.82533212 47.138,5.068 L46.578,4.06 C46.9606686,3.75199846 47.4179973,3.51633415 47.95,3.353 C48.4820027,3.18966585 49.0466637,3.108 49.644,3.108 Z M49.336,9.646 C49.8493359,9.646 50.2926648,9.53166781 50.666,9.303 C51.0393352,9.07433219 51.3099992,8.7500021 51.478,8.33 L51.478,7.294 L49.406,7.294 C48.2673276,7.294 47.698,7.67666284 47.698,8.442 C47.698,8.8153352 47.8426652,9.10933226 48.132,9.324 C48.4213348,9.53866774 48.8226641,9.646 49.336,9.646 Z M55.314,0.21 L56.658,0.21 L56.658,10.598 L55.314,10.598 L55.314,0.21 Z" id="minimal" fill="#71828A"></path>
                        <path d="M5.7,28.48 C4.5933278,28.48 3.5233385,28.3300015 2.49,28.03 C1.4566615,27.7299985 0.6266698,27.3400024 0,26.86 L1.1,24.42 C1.700003,24.8600022 2.4133292,25.213332 3.24,25.48 C4.0666708,25.746668 4.8933292,25.88 5.72,25.88 C6.6400046,25.88 7.3199978,25.7433347 7.76,25.47 C8.2000022,25.1966653 8.42,24.8333356 8.42,24.38 C8.42,24.046665 8.2900013,23.7700011 8.03,23.55 C7.7699987,23.3299989 7.4366687,23.153334 7.03,23.02 C6.6233313,22.886666 6.0733368,22.7400008 5.38,22.58 C4.313328,22.3266654 3.4400034,22.0733346 2.76,21.82 C2.0799966,21.5666654 1.4966691,21.1600028 1.01,20.6 C0.5233309,20.0399972 0.28,19.293338 0.28,18.36 C0.28,17.5466626 0.4999978,16.8100033 0.94,16.15 C1.3800022,15.4899967 2.0433289,14.9666686 2.93,14.58 C3.8166711,14.1933314 4.8999936,14 6.18,14 C7.0733378,14 7.9466624,14.1066656 8.8,14.32 C9.6533376,14.5333344 10.3999968,14.839998 11.04,15.24 L10.04,17.7 C8.7466602,16.966663 7.4533398,16.6 6.16,16.6 C5.2533288,16.6 4.5833355,16.7466652 4.15,17.04 C3.7166645,17.3333348 3.5,17.7199976 3.5,18.2 C3.5,18.6800024 3.7499975,19.0366655 4.25,19.27 C4.7500025,19.5033345 5.5133282,19.7333322 6.54,19.96 C7.606672,20.2133346 8.4799966,20.4666654 9.16,20.72 C9.8400034,20.9733346 10.4233309,21.3733306 10.91,21.92 C11.3966691,22.4666694 11.64,23.206662 11.64,24.14 C11.64,24.940004 11.4166689,25.6699967 10.97,26.33 C10.5233311,26.9900033 9.8533378,27.5133314 8.96,27.9 C8.0666622,28.2866686 6.9800064,28.48 5.7,28.48 Z M17.98,17.32 C19.646675,17.32 20.9266622,17.7166627 21.82,18.51 C22.7133378,19.3033373 23.16,20.499992 23.16,22.1 L23.16,28.24 L20.24,28.24 L20.24,26.9 C19.6533304,27.900005 18.560008,28.4 16.96,28.4 C16.1333292,28.4 15.4166697,28.2600014 14.81,27.98 C14.2033303,27.6999986 13.7400016,27.3133358 13.42,26.82 C13.0999984,26.3266642 12.94,25.7666698 12.94,25.14 C12.94,24.139995 13.3166629,23.3533362 14.07,22.78 C14.8233371,22.2066638 15.9866588,21.92 17.56,21.92 L20.04,21.92 C20.04,21.2399966 19.8333354,20.7166685 19.42,20.35 C19.0066646,19.9833315 18.3866708,19.8 17.56,19.8 C16.9866638,19.8 16.4233361,19.8899991 15.87,20.07 C15.3166639,20.2500009 14.8466686,20.4933318 14.46,20.8 L13.34,18.62 C13.9266696,18.2066646 14.6299959,17.8866678 15.45,17.66 C16.2700041,17.4333322 17.113329,17.32 17.98,17.32 Z M17.74,26.3 C18.273336,26.3 18.7466646,26.1766679 19.16,25.93 C19.5733354,25.6833321 19.8666658,25.3200024 20.04,24.84 L20.04,23.74 L17.9,23.74 C16.6199936,23.74 15.98,24.1599958 15.98,25 C15.98,25.400002 16.1366651,25.7166655 16.45,25.95 C16.7633349,26.1833345 17.1933306,26.3 17.74,26.3 Z M30.32,17.32 C31.986675,17.32 33.2666622,17.7166627 34.16,18.51 C35.0533378,19.3033373 35.5,20.499992 35.5,22.1 L35.5,28.24 L32.58,28.24 L32.58,26.9 C31.9933304,27.900005 30.900008,28.4 29.3,28.4 C28.4733292,28.4 27.7566697,28.2600014 27.15,27.98 C26.5433303,27.6999986 26.0800016,27.3133358 25.76,26.82 C25.4399984,26.3266642 25.28,25.7666698 25.28,25.14 C25.28,24.139995 25.6566629,23.3533362 26.41,22.78 C27.1633371,22.2066638 28.3266588,21.92 29.9,21.92 L32.38,21.92 C32.38,21.2399966 32.1733354,20.7166685 31.76,20.35 C31.3466646,19.9833315 30.7266708,19.8 29.9,19.8 C29.3266638,19.8 28.7633361,19.8899991 28.21,20.07 C27.6566639,20.2500009 27.1866686,20.4933318 26.8,20.8 L25.68,18.62 C26.2666696,18.2066646 26.9699959,17.8866678 27.79,17.66 C28.6100041,17.4333322 29.453329,17.32 30.32,17.32 Z M30.08,26.3 C30.613336,26.3 31.0866646,26.1766679 31.5,25.93 C31.9133354,25.6833321 32.2066658,25.3200024 32.38,24.84 L32.38,23.74 L30.24,23.74 C28.9599936,23.74 28.32,24.1599958 28.32,25 C28.32,25.400002 28.4766651,25.7166655 28.79,25.95 C29.1033349,26.1833345 29.5333306,26.3 30.08,26.3 Z M43.14,28.48 C42.0333278,28.48 40.9633385,28.3300015 39.93,28.03 C38.8966615,27.7299985 38.0666698,27.3400024 37.44,26.86 L38.54,24.42 C39.140003,24.8600022 39.8533292,25.213332 40.68,25.48 C41.5066708,25.746668 42.3333292,25.88 43.16,25.88 C44.0800046,25.88 44.7599978,25.7433347 45.2,25.47 C45.6400022,25.1966653 45.86,24.8333356 45.86,24.38 C45.86,24.046665 45.7300013,23.7700011 45.47,23.55 C45.2099987,23.3299989 44.8766687,23.153334 44.47,23.02 C44.0633313,22.886666 43.5133368,22.7400008 42.82,22.58 C41.753328,22.3266654 40.8800034,22.0733346 40.2,21.82 C39.5199966,21.5666654 38.9366691,21.1600028 38.45,20.6 C37.9633309,20.0399972 37.72,19.293338 37.72,18.36 C37.72,17.5466626 37.9399978,16.8100033 38.38,16.15 C38.8200022,15.4899967 39.4833289,14.9666686 40.37,14.58 C41.2566711,14.1933314 42.3399936,14 43.62,14 C44.5133378,14 45.3866624,14.1066656 46.24,14.32 C47.0933376,14.5333344 47.8399968,14.839998 48.48,15.24 L47.48,17.7 C46.1866602,16.966663 44.8933398,16.6 43.6,16.6 C42.6933288,16.6 42.0233355,16.7466652 41.59,17.04 C41.1566645,17.3333348 40.94,17.7199976 40.94,18.2 C40.94,18.6800024 41.1899975,19.0366655 41.69,19.27 C42.1900025,19.5033345 42.9533282,19.7333322 43.98,19.96 C45.046672,20.2133346 45.9199966,20.4666654 46.6,20.72 C47.2800034,20.9733346 47.8633309,21.3733306 48.35,21.92 C48.8366691,22.4666694 49.08,23.206662 49.08,24.14 C49.08,24.940004 48.8566689,25.6699967 48.41,26.33 C47.9633311,26.9900033 47.2933378,27.5133314 46.4,27.9 C45.5066622,28.2866686 44.4200064,28.48 43.14,28.48 Z M63.02,14.24 C64.2600062,14.24 65.3366621,14.4466646 66.25,14.86 C67.1633379,15.2733354 67.8666642,15.8599962 68.36,16.62 C68.8533358,17.3800038 69.1,18.2799948 69.1,19.32 C69.1,20.3466718 68.8533358,21.2433295 68.36,22.01 C67.8666642,22.7766705 67.1633379,23.3633313 66.25,23.77 C65.3366621,24.1766687 64.2600062,24.38 63.02,24.38 L60.2,24.38 L60.2,28.24 L56.96,28.24 L56.96,14.24 L63.02,14.24 Z M62.84,21.74 C63.8133382,21.74 64.5533308,21.5300021 65.06,21.11 C65.5666692,20.6899979 65.82,20.0933372 65.82,19.32 C65.82,18.5333294 65.5666692,17.9300021 65.06,17.51 C64.5533308,17.0899979 63.8133382,16.88 62.84,16.88 L60.2,16.88 L60.2,21.74 L62.84,21.74 Z M75.72,17.32 C77.386675,17.32 78.6666622,17.7166627 79.56,18.51 C80.4533378,19.3033373 80.9,20.499992 80.9,22.1 L80.9,28.24 L77.98,28.24 L77.98,26.9 C77.3933304,27.900005 76.300008,28.4 74.7,28.4 C73.8733292,28.4 73.1566697,28.2600014 72.55,27.98 C71.9433303,27.6999986 71.4800016,27.3133358 71.16,26.82 C70.8399984,26.3266642 70.68,25.7666698 70.68,25.14 C70.68,24.139995 71.0566629,23.3533362 71.81,22.78 C72.5633371,22.2066638 73.7266588,21.92 75.3,21.92 L77.78,21.92 C77.78,21.2399966 77.5733354,20.7166685 77.16,20.35 C76.7466646,19.9833315 76.1266708,19.8 75.3,19.8 C74.7266638,19.8 74.1633361,19.8899991 73.61,20.07 C73.0566639,20.2500009 72.5866686,20.4933318 72.2,20.8 L71.08,18.62 C71.6666696,18.2066646 72.3699959,17.8866678 73.19,17.66 C74.0100041,17.4333322 74.853329,17.32 75.72,17.32 Z M75.48,26.3 C76.013336,26.3 76.4866646,26.1766679 76.9,25.93 C77.3133354,25.6833321 77.6066658,25.3200024 77.78,24.84 L77.78,23.74 L75.64,23.74 C74.3599936,23.74 73.72,24.1599958 73.72,25 C73.72,25.400002 73.8766651,25.7166655 74.19,25.95 C74.5033349,26.1833345 74.9333306,26.3 75.48,26.3 Z M88.06,17.32 C89.726675,17.32 91.0066622,17.7166627 91.9,18.51 C92.7933378,19.3033373 93.24,20.499992 93.24,22.1 L93.24,28.24 L90.32,28.24 L90.32,26.9 C89.7333304,27.900005 88.640008,28.4 87.04,28.4 C86.2133292,28.4 85.4966697,28.2600014 84.89,27.98 C84.2833303,27.6999986 83.8200016,27.3133358 83.5,26.82 C83.1799984,26.3266642 83.02,25.7666698 83.02,25.14 C83.02,24.139995 83.3966629,23.3533362 84.15,22.78 C84.9033371,22.2066638 86.0666588,21.92 87.64,21.92 L90.12,21.92 C90.12,21.2399966 89.9133354,20.7166685 89.5,20.35 C89.0866646,19.9833315 88.4666708,19.8 87.64,19.8 C87.0666638,19.8 86.5033361,19.8899991 85.95,20.07 C85.3966639,20.2500009 84.9266686,20.4933318 84.54,20.8 L83.42,18.62 C84.0066696,18.2066646 84.7099959,17.8866678 85.53,17.66 C86.3500041,17.4333322 87.193329,17.32 88.06,17.32 Z M87.82,26.3 C88.353336,26.3 88.8266646,26.1766679 89.24,25.93 C89.6533354,25.6833321 89.9466658,25.3200024 90.12,24.84 L90.12,23.74 L87.98,23.74 C86.6999936,23.74 86.06,24.1599958 86.06,25 C86.06,25.400002 86.2166651,25.7166655 86.53,25.95 C86.8433349,26.1833345 87.2733306,26.3 87.82,26.3 Z M100.88,28.48 C99.7733278,28.48 98.7033385,28.3300015 97.67,28.03 C96.6366615,27.7299985 95.8066698,27.3400024 95.18,26.86 L96.28,24.42 C96.880003,24.8600022 97.5933292,25.213332 98.42,25.48 C99.2466708,25.746668 100.073329,25.88 100.9,25.88 C101.820005,25.88 102.499998,25.7433347 102.94,25.47 C103.380002,25.1966653 103.6,24.8333356 103.6,24.38 C103.6,24.046665 103.470001,23.7700011 103.21,23.55 C102.949999,23.3299989 102.616669,23.153334 102.21,23.02 C101.803331,22.886666 101.253337,22.7400008 100.56,22.58 C99.493328,22.3266654 98.6200034,22.0733346 97.94,21.82 C97.2599966,21.5666654 96.6766691,21.1600028 96.19,20.6 C95.7033309,20.0399972 95.46,19.293338 95.46,18.36 C95.46,17.5466626 95.6799978,16.8100033 96.12,16.15 C96.5600022,15.4899967 97.2233289,14.9666686 98.11,14.58 C98.9966711,14.1933314 100.079994,14 101.36,14 C102.253338,14 103.126662,14.1066656 103.98,14.32 C104.833338,14.5333344 105.579997,14.839998 106.22,15.24 L105.22,17.7 C103.92666,16.966663 102.63334,16.6 101.34,16.6 C100.433329,16.6 99.7633355,16.7466652 99.33,17.04 C98.8966645,17.3333348 98.68,17.7199976 98.68,18.2 C98.68,18.6800024 98.9299975,19.0366655 99.43,19.27 C99.9300025,19.5033345 100.693328,19.7333322 101.72,19.96 C102.786672,20.2133346 103.659997,20.4666654 104.34,20.72 C105.020003,20.9733346 105.603331,21.3733306 106.09,21.92 C106.576669,22.4666694 106.82,23.206662 106.82,24.14 C106.82,24.940004 106.596669,25.6699967 106.15,26.33 C105.703331,26.9900033 105.033338,27.5133314 104.14,27.9 C103.246662,28.2866686 102.160006,28.48 100.88,28.48 Z" id="SaaS-PaaS" fill="#1D262C"></path>
                    </g>
                    <g id="Shape">
                        <use fill="black" fill-opacity="1" filter="url(#filter-2)" xlink:href="#path-1"></use>
                        <use fill="#0074E4" fill-rule="evenodd" xlink:href="#path-1"></use>
                    </g>
                </g>
            </g>
        </g>
    </g>
</svg>