<svg xmlns="http://www.w3.org/2000/svg" width="24" height="26" viewBox="0 0 24 26">
  <defs>
    <style>
      .cls-1 {
        fill: #fff;
        fill-rule: evenodd;
      }
    </style>
  </defs>
  <path id="Composite_Path_copy" data-name="Composite Path copy" class="cls-1" d="M832.262,208.592c4.4,0,8.683,2.878,8.683,8.625s-4.283,8.625-8.683,8.625-8.683-2.879-8.683-8.625S827.861,208.592,832.262,208.592Zm0-1.592C827.19,207,822,210.4,822,217.217s5.19,10.216,10.262,10.216a10.988,10.988,0,0,0,5.49-1.443l6.669,7.01L846,231.409l-6.444-6.768a9.914,9.914,0,0,0,2.968-7.424C842.524,210.4,837.334,207,832.262,207Z" transform="translate(-822 -207)"/>
</svg>
